<svg width="32" height="32" viewBox="0 0 32 32" fill="none" xmlns="http://www.w3.org/2000/svg">
<path d="M0 8.42105C0 3.77023 3.77023 0 8.42105 0H23.5789C28.2298 0 32 3.77023 32 8.42105V23.5789C32 28.2298 28.2298 32 23.5789 32H8.42105C3.77023 32 0 28.2298 0 23.5789V8.42105Z" fill="#3C50E0"/>
<g filter="url(#filter0_d_497_15617)">
<path d="M8.42126 8.42136C8.42126 7.4912 9.17531 6.73715 10.1055 6.73715C11.0356 6.73715 11.7897 7.4912 11.7897 8.42136V23.5793C11.7897 24.5094 11.0356 25.2635 10.1055 25.2635C9.17531 25.2635 8.42126 24.5094 8.42126 23.5793V8.42136Z" fill="white"/>
</g>
<g opacity="0.9" filter="url(#filter1_d_497_15617)">
<path d="M14.7369 15.1578C14.7369 14.2276 15.491 13.4736 16.4211 13.4736C17.3513 13.4736 18.1054 14.2276 18.1054 15.1578V23.5788C18.1054 24.509 17.3513 25.263 16.4211 25.263C15.491 25.263 14.7369 24.509 14.7369 23.5788V15.1578Z" fill="white"/>
</g>
<g opacity="0.7" filter="url(#filter2_d_497_15617)">
<path d="M21.0522 10.947C21.0522 10.0169 21.8063 9.26282 22.7365 9.26282C23.6666 9.26282 24.4207 10.0169 24.4207 10.947V23.5786C24.4207 24.5088 23.6666 25.2628 22.7365 25.2628C21.8063 25.2628 21.0522 24.5088 21.0522 23.5786V10.947Z" fill="white"/>
</g>
<defs>
<filter id="filter0_d_497_15617" x="7.42126" y="6.23715" width="5.36841" height="20.5263" filterUnits="userSpaceOnUse" color-interpolation-filters="sRGB">
<feFlood flood-opacity="0" result="BackgroundImageFix"/>
<feColorMatrix in="SourceAlpha" type="matrix" values="0 0 0 0 0 0 0 0 0 0 0 0 0 0 0 0 0 0 127 0" result="hardAlpha"/>
<feOffset dy="0.5"/>
<feGaussianBlur stdDeviation="0.5"/>
<feComposite in2="hardAlpha" operator="out"/>
<feColorMatrix type="matrix" values="0 0 0 0 0 0 0 0 0 0 0 0 0 0 0 0 0 0 0.12 0"/>
<feBlend mode="normal" in2="BackgroundImageFix" result="effect1_dropShadow_497_15617"/>
<feBlend mode="normal" in="SourceGraphic" in2="effect1_dropShadow_497_15617" result="shape"/>
</filter>
<filter id="filter1_d_497_15617" x="13.7369" y="12.9736" width="5.36841" height="13.7895" filterUnits="userSpaceOnUse" color-interpolation-filters="sRGB">
<feFlood flood-opacity="0" result="BackgroundImageFix"/>
<feColorMatrix in="SourceAlpha" type="matrix" values="0 0 0 0 0 0 0 0 0 0 0 0 0 0 0 0 0 0 127 0" result="hardAlpha"/>
<feOffset dy="0.5"/>
<feGaussianBlur stdDeviation="0.5"/>
<feComposite in2="hardAlpha" operator="out"/>
<feColorMatrix type="matrix" values="0 0 0 0 0 0 0 0 0 0 0 0 0 0 0 0 0 0 0.12 0"/>
<feBlend mode="normal" in2="BackgroundImageFix" result="effect1_dropShadow_497_15617"/>
<feBlend mode="normal" in="SourceGraphic" in2="effect1_dropShadow_497_15617" result="shape"/>
</filter>
<filter id="filter2_d_497_15617" x="20.0522" y="8.76282" width="5.36841" height="18" filterUnits="userSpaceOnUse" color-interpolation-filters="sRGB">
<feFlood flood-opacity="0" result="BackgroundImageFix"/>
<feColorMatrix in="SourceAlpha" type="matrix" values="0 0 0 0 0 0 0 0 0 0 0 0 0 0 0 0 0 0 127 0" result="hardAlpha"/>
<feOffset dy="0.5"/>
<feGaussianBlur stdDeviation="0.5"/>
<feComposite in2="hardAlpha" operator="out"/>
<feColorMatrix type="matrix" values="0 0 0 0 0 0 0 0 0 0 0 0 0 0 0 0 0 0 0.12 0"/>
<feBlend mode="normal" in2="BackgroundImageFix" result="effect1_dropShadow_497_15617"/>
<feBlend mode="normal" in="SourceGraphic" in2="effect1_dropShadow_497_15617" result="shape"/>
</filter>
</defs>
</svg>
